<svg width="67" height="67" viewBox="0 0 67 67" fill="none" xmlns="http://www.w3.org/2000/svg">
<circle cx="33.5" cy="33.5" r="33.5" fill="#FF5353" fill-opacity="0.9"/>
<path d="M21.125 24.25H23.875H45.875" stroke="white" stroke-width="2" stroke-linecap="round" stroke-linejoin="round"/>
<path d="M43.125 24.25V43.5C43.125 44.2293 42.8353 44.9288 42.3195 45.4445C41.8038 45.9603 41.1043 46.25 40.375 46.25H26.625C25.8957 46.25 25.1962 45.9603 24.6805 45.4445C24.1647 44.9288 23.875 44.2293 23.875 43.5V24.25M28 24.25V21.5C28 20.7707 28.2897 20.0712 28.8055 19.5555C29.3212 19.0397 30.0207 18.75 30.75 18.75H36.25C36.9793 18.75 37.6788 19.0397 38.1945 19.5555C38.7103 20.0712 39 20.7707 39 21.5V24.25" stroke="white" stroke-width="2" stroke-linecap="round" stroke-linejoin="round"/>
<path d="M30.75 31.125V39.375" stroke="white" stroke-width="2" stroke-linecap="round" stroke-linejoin="round"/>
<path d="M36.25 31.125V39.375" stroke="white" stroke-width="2" stroke-linecap="round" stroke-linejoin="round"/>
</svg>
